<?xml version="1.0" encoding="UTF-8"?>
<svg version="1.1" xmlns="http://www.w3.org/2000/svg" width="450" height="305">
<path d="M0 0 C23.45953841 6.43245408 41.23276716 19.27327891 54 40 C57.36723572 45.9330834 60.11616984 51.18044682 61 58 C63.85215083 55.24881027 66.34358701 52.39684775 68.75 49.25 C70.35875 47.14625 70.35875 47.14625 72 45 C78.27 46.98 84.54 48.96 91 51 C89.39540044 55.01149891 88.3320609 57.06647532 85.8125 60.3125 C73.3069964 77.85675557 68.6186594 100.47877957 72.125 121.625 C75.76351121 143.30700349 87.34284975 162.40047926 105.13671875 175.421875 C123.65303639 188.20615997 145.90809904 192.79924211 168.09375 189.45703125 C177.80854793 187.54575035 188.46368581 184.96762386 195 177 C198.76339252 171.15046973 202.01249522 165.2153457 201.45703125 158.09765625 C200.35060893 153.0194615 198.27524703 149.24254839 194.5625 145.625 C189.10539568 142.16439726 184.41582886 141.12462901 178 142 C173.09666414 143.64860859 169.83925001 145.61842348 167 150 C166.41596768 152.30343832 166.41596768 152.30343832 166.26953125 154.765625 C166.18896484 155.65507812 166.10839844 156.54453125 166.02539062 157.4609375 C165.92000977 158.84152344 165.92000977 158.84152344 165.8125 160.25 C165.6897168 161.65378906 165.6897168 161.65378906 165.56445312 163.0859375 C165.36461995 165.38989647 165.1769061 167.69418616 165 170 C155.95976311 174.5933611 147.23972052 175.83049752 137.25 173.3046875 C134.99813679 172.37423013 133.04948561 171.31429939 131 170 C130.30519531 169.5875 129.61039063 169.175 128.89453125 168.75 C121.49657332 163.8642942 117.35627738 156.4290468 115 148 C113.58287424 135.16347713 117.48340179 124.32105567 125 114 C136.87256656 99.36533541 154.74498494 92.65950208 173 90 C196.5581123 88.59403758 216.40811628 91.13102063 237.28125 102.2109375 C240.21133984 103.55611511 241.92501627 102.91110629 245 102 C262.64538347 93.76331731 276.34934057 78.13593107 283 60 C285.50449893 52.43556425 287.63359403 44.98459673 288 37 C288.0515625 36.35675781 288.103125 35.71351562 288.15625 35.05078125 C288.43727321 28.90339862 287.21466342 23.02147964 285.97949219 17.02734375 C284.53602727 9.69949865 284.53602727 9.69949865 286 6 C287.99609375 4.19921875 287.99609375 4.19921875 290.4375 2.6875 C291.24058594 2.17574219 292.04367187 1.66398438 292.87109375 1.13671875 C295 0 295 0 297 0 C299.97741025 8.13825468 300.15836949 15.74210193 300.125 24.3125 C300.12886719 25.29412109 300.13273437 26.27574219 300.13671875 27.28710938 C300.12838495 33.58329235 299.75417246 39.74930182 299 46 C299.78761719 45.05640625 300.57523437 44.1128125 301.38671875 43.140625 C312.66328608 29.78260659 324.52775056 18.80728148 339 9 C343.08596252 10.52763464 344.79826179 13.11084191 347.25 16.625 C348.30960937 18.12933594 348.30960937 18.12933594 349.390625 19.6640625 C349.92171875 20.43492188 350.4528125 21.20578125 351 22 C349.4899819 26.28650298 346.31196905 28.10363672 342.6875 30.5 C335.12769784 35.69079569 328.58115243 41.63700732 322 48 C321.33484375 48.61359375 320.6696875 49.2271875 319.984375 49.859375 C299.62876016 69.07355349 288.22240482 95.85977777 280 122 C299.18340549 121.36463907 317.77157525 113.93706607 332 101 C332.84304688 100.23816406 333.68609375 99.47632812 334.5546875 98.69140625 C339.18768659 94.29076122 342.81342096 89.93493271 346.1875 84.5 C349.56151691 79.2153952 349.56151691 79.2153952 353.5625 77.25 C357.0647684 76.99528957 360.49045902 76.85675343 364 77 C363.46659527 82.53516711 361.409516 86.63025761 358.8125 91.4375 C358.43802734 92.16259766 358.06355469 92.88769531 357.67773438 93.63476562 C355.00392862 98.65322398 351.86809094 102.83785816 348 107 C349.22009766 106.89171875 349.22009766 106.89171875 350.46484375 106.78125 C357.29995185 106.22767544 364.08151051 105.89313954 370.9375 105.875 C371.63415771 105.87048828 372.33081543 105.86597656 373.04858398 105.86132812 C377.4743945 105.87403228 381.64697863 106.28490131 386 107 C387.31035901 111.62993518 388.16663914 115.99216195 388.56640625 120.79296875 C388.64963135 121.77160889 388.73285645 122.75024902 388.81860352 123.75854492 C388.90839478 124.86806519 388.90839478 124.86806519 389 126 C388.27635254 125.97905273 387.55270508 125.95810547 386.80712891 125.93652344 C366.55142388 125.4292479 350.44127976 126.85194328 331.91894531 135.06079102 C318.10204088 141.15049557 304.62101651 143.16929799 289.5625 143.0625 C288.35400391 143.05798828 287.14550781 143.05347656 285.90039062 143.04882812 C282.93354211 143.03710145 279.9667973 143.02068896 277 143 C293.60980158 153.94398057 310.69766517 161.23916026 330 166 C331.0003125 166.26683594 332.000625 166.53367188 333.03125 166.80859375 C351.29329422 170.99846149 371.32513214 168.19116316 388 160 C388.66 160 389.32 160 390 160 C389.91304042 162.60578866 389.80618592 165.2081279 389.6875 167.8125 C389.66494141 168.55048828 389.64238281 169.28847656 389.61914062 170.04882812 C389.3539021 175.37771117 389.3539021 175.37771117 387.94921875 177.84765625 C384.86527379 179.67083012 381.54061038 180.62801103 378.125 181.625 C377.41730469 181.8415625 376.70960938 182.058125 375.98046875 182.28125 C348.14888552 190.67737008 318.59907105 182.63957762 293 171 C298.98155444 187.36291488 305.60789592 200.60789592 318 213 C319.13115234 214.13115234 319.13115234 214.13115234 320.28515625 215.28515625 C334.60388211 228.77230456 353.02419788 234.08850412 372 237 C371.54738642 238.43931117 371.08767021 239.87638999 370.625 241.3125 C370.36976563 242.11300781 370.11453125 242.91351563 369.8515625 243.73828125 C369 246 369 246 367 249 C349.62229591 252.01963512 329.92643936 243.58252648 315.76171875 234.0546875 C289.11486486 214.22972973 289.11486486 214.22972973 284 204 C283.07985221 227.51488807 288.325463 247.77109401 304 266 C314.21155143 276.92564593 327.50747488 283.08301224 341 289 C339.0462166 292.43264715 336.95062384 295.37572063 334.3125 298.3125 C333.37857422 299.35857422 333.37857422 299.35857422 332.42578125 300.42578125 C331.95527344 300.94527344 331.48476563 301.46476562 331 302 C308.96150376 297.27746509 290.75153765 283.37876418 278.47070312 264.74658203 C270 251.38401418 270 251.38401418 270 244 C267.14784917 246.75118973 264.65641299 249.60315225 262.25 252.75 C261.1775 254.1525 260.105 255.555 259 257 C252.73 255.02 246.46 253.04 240 251 C240.97406952 247.10372194 241.84169096 245.60703184 244.1875 242.5 C257.51089613 223.85270583 262.2801574 201.55732236 258.68017578 178.99560547 C254.75526803 157.42178369 242.71839697 138.64049059 224.96875 125.80859375 C205.0397581 112.81035274 182.27762444 108.61198007 159 113 C147.5938516 115.74279204 140.17629529 119.64356437 133 129 C130.04309867 133.82960551 128.31914811 138.52279214 129.4375 144.234375 C131.1459197 150.01970536 133.41861008 154.81759052 138.75 158.06640625 C144.14064986 160.49002504 149.31443303 160.41901085 155 159 C158.42223531 157.27589884 158.42223531 157.27589884 161 155 C161.53278564 154.56196045 162.06557129 154.1239209 162.61450195 153.67260742 C164.43957078 151.46933931 164.50713144 149.94794711 164.73046875 147.11328125 C164.81103516 146.17548828 164.89160156 145.23769531 164.97460938 144.27148438 C165.07999023 142.80678711 165.07999023 142.80678711 165.1875 141.3125 C165.3102832 139.83040039 165.3102832 139.83040039 165.43554688 138.31835938 C165.63583026 135.87961463 165.82347846 133.44056084 166 131 C176.38706935 126.92642418 185.57755284 125.65167162 196.23046875 129.88671875 C205.35702793 134.21883784 211.09301005 140.89811316 214.92578125 150.26171875 C218.0764798 161.85714675 214.86956769 172.20427489 209.234375 182.32421875 C200.57314922 196.97451072 185.55967604 205.04937443 169.3984375 209.26171875 C148.83765928 214.11609037 127.79480479 213.30456369 107.8125 206.25 C96.95966415 202.77325082 84.15582043 204.17748764 74 209 C60.46325556 216.09170211 52.01733892 229.26368269 47.1875 243.4375 C42.55484948 258.32598537 41.36698045 273.22106495 45.671875 288.36328125 C46.1875 290.375 46.1875 290.375 46 294 C42.59301952 297.71078766 38.77882284 300.40705905 34 302 C31.46531362 293.72002449 30.83384696 285.88185024 30.875 277.25 C30.87693359 276.27659668 30.87886719 275.30319336 30.88085938 274.30029297 C30.91985525 267.82806058 31.13953006 261.4227935 32 255 C31.4121875 255.804375 31.4121875 255.804375 30.8125 256.625 C21.7700777 268.47369129 11.0452252 279.04682132 -0.8125 288.0625 C-1.48796875 288.58118652 -2.1634375 289.09987305 -2.859375 289.63427734 C-4.76953125 291.03515625 -4.76953125 291.03515625 -8 293 C-12.03194851 291.65601716 -13.45014068 288.9913556 -15.75 285.625 C-16.17410156 285.03460938 -16.59820312 284.44421875 -17.03515625 283.8359375 C-18.234375 282.1015625 -18.234375 282.1015625 -20 279 C-18.71195646 275.13586937 -17.31472937 274.72552807 -13.875 272.625 C18.6949438 251.4797095 41.71673108 216.43844636 51 179 C25.73849673 182.95085122 3.71701641 191.5483694 -12.1875 212.4375 C-14.1305355 215.16815219 -15.9335771 217.88532802 -17.61328125 220.78515625 C-19 223 -19 223 -21 224 C-23.04055005 224.07065617 -25.08334257 224.08421976 -27.125 224.0625 C-28.22070312 224.05347656 -29.31640625 224.04445312 -30.4453125 224.03515625 C-31.28835937 224.02355469 -32.13140625 224.01195312 -33 224 C-29.80793515 212.92165728 -24.33431119 202.8925165 -17 194 C-17.66604248 194.16298584 -18.33208496 194.32597168 -19.01831055 194.49389648 C-22.59898073 195.10166929 -26.08872233 195.12448724 -29.70703125 195.09765625 C-30.79512337 195.09553383 -30.79512337 195.09553383 -31.90519714 195.09336853 C-34.2076745 195.08779931 -36.51005235 195.07525261 -38.8125 195.0625 C-40.37955588 195.05748102 -41.9466133 195.05291881 -43.51367188 195.04882812 C-47.34251651 195.03869354 -51.17114769 195.01911241 -55 195 C-56.485 185.595 -56.485 185.595 -58 176 C-56.3809375 176.03480469 -54.761875 176.06960937 -53.09375 176.10546875 C-34.08385045 176.393808 -18.66481121 174.67682601 -1.16015625 166.70703125 C16.9937716 158.61371637 34.38708657 158.45508041 54 159 C40.15507572 149.59227795 26.15992948 142.63650322 10 138 C9.33194336 137.80245117 8.66388672 137.60490234 7.97558594 137.40136719 C-14.29875499 131.00286117 -36.88557481 132.457904 -58 142 C-58.02707139 139.75006641 -58.04642829 137.50003905 -58.0625 135.25 C-58.07410156 133.99703125 -58.08570313 132.7440625 -58.09765625 131.453125 C-57.93903815 125.84438882 -57.93903815 125.84438882 -57 124 C-50.31693172 120.39989477 -42.5129492 118.10929451 -35 117 C-33.66195312 116.79890625 -33.66195312 116.79890625 -32.296875 116.59375 C-8.59064131 113.91920056 16.96366219 120.11022144 38 131 C29.2110666 105.36561093 16.04326479 85.96239138 -8.85498047 73.67993164 C-19.02588259 68.93342995 -29.96005408 66.74435736 -41 65 C-40.54738642 63.56068883 -40.08767021 62.12361001 -39.625 60.6875 C-39.24214844 59.48673828 -39.24214844 59.48673828 -38.8515625 58.26171875 C-38 56 -38 56 -36 53 C-18.92803929 49.96801978 1.30504817 58.20990048 14.9453125 67.72265625 C41.91437309 87.82874618 41.91437309 87.82874618 47 98 C47.92014779 74.48511193 42.674537 54.22890599 27 36 C16.78844857 25.07435407 3.49252512 18.91698776 -10 13 C-7.02480663 8.30834891 -3.68606635 4.15296809 0 0 Z " fill="#630811" transform="translate(58,2)"/>
</svg>
